<svg width="100%" viewBox="0 0 680 470" xmlns="http://www.w3.org/2000/svg">
<title>Switch tester perfboard wiring layout - Bally 6803</title>
<rect width="680" height="470" fill="#1A1A18"/>
<rect x="38" y="38" width="610" height="240" rx="4" fill="#262624" stroke="rgba(222,220,209,0.15)" stroke-width="0.5"/>

<!-- Column numbers -->
<g fill="#C2C0B6" font-family="monospace" font-size="11" text-anchor="middle">
<text x="58" y="28">1</text><text x="88" y="28">2</text><text x="118" y="28">3</text>
<text x="148" y="28">4</text><text x="178" y="28">5</text><text x="208" y="28">6</text>
<text x="238" y="28">7</text><text x="268" y="28">8</text><text x="298" y="28">9</text>
<text x="328" y="28">10</text><text x="358" y="28">11</text><text x="388" y="28">12</text>
<text x="418" y="28">13</text><text x="448" y="28">14</text><text x="478" y="28">15</text>
<text x="508" y="28">16</text><text x="538" y="28">17</text><text x="568" y="28">18</text>
<text x="598" y="28">19</text><text x="628" y="28">20</text>
</g>

<!-- Row labels -->
<g fill="#C2C0B6" font-family="monospace" font-size="11" text-anchor="middle">
<text x="22" y="66">R1</text>
<text x="22" y="116">R2</text>
<text x="22" y="166">R3</text>
<text x="22" y="216">R4</text>
<text x="22" y="266">R5</text>
</g>
<g fill="#8A8880" font-family="monospace" font-size="9" text-anchor="end">
<text x="36" y="76">Pi</text>
<text x="36" y="172">CJ4</text>
</g>

<!-- Grid dots -->
<g fill="rgba(222,220,209,0.3)">
<circle cx="58" cy="62" r="2.5"/><circle cx="88" cy="62" r="2.5"/><circle cx="118" cy="62" r="2.5"/><circle cx="148" cy="62" r="2.5"/><circle cx="178" cy="62" r="2.5"/><circle cx="208" cy="62" r="2.5"/><circle cx="238" cy="62" r="2.5"/><circle cx="268" cy="62" r="2.5"/><circle cx="298" cy="62" r="2.5"/><circle cx="328" cy="62" r="2.5"/><circle cx="358" cy="62" r="2.5"/><circle cx="388" cy="62" r="2.5"/><circle cx="418" cy="62" r="2.5"/><circle cx="448" cy="62" r="2.5"/><circle cx="478" cy="62" r="2.5"/><circle cx="508" cy="62" r="2.5"/><circle cx="538" cy="62" r="2.5"/><circle cx="568" cy="62" r="2.5"/><circle cx="598" cy="62" r="2.5"/><circle cx="628" cy="62" r="2.5"/>
<circle cx="58" cy="112" r="2.5"/><circle cx="88" cy="112" r="2.5"/><circle cx="118" cy="112" r="2.5"/><circle cx="148" cy="112" r="2.5"/><circle cx="178" cy="112" r="2.5"/><circle cx="208" cy="112" r="2.5"/><circle cx="238" cy="112" r="2.5"/><circle cx="268" cy="112" r="2.5"/><circle cx="298" cy="112" r="2.5"/><circle cx="328" cy="112" r="2.5"/><circle cx="358" cy="112" r="2.5"/><circle cx="388" cy="112" r="2.5"/><circle cx="418" cy="112" r="2.5"/><circle cx="448" cy="112" r="2.5"/><circle cx="478" cy="112" r="2.5"/><circle cx="508" cy="112" r="2.5"/><circle cx="538" cy="112" r="2.5"/><circle cx="568" cy="112" r="2.5"/><circle cx="598" cy="112" r="2.5"/><circle cx="628" cy="112" r="2.5"/>
<circle cx="58" cy="162" r="2.5"/><circle cx="88" cy="162" r="2.5"/><circle cx="118" cy="162" r="2.5"/><circle cx="148" cy="162" r="2.5"/><circle cx="178" cy="162" r="2.5"/><circle cx="208" cy="162" r="2.5"/><circle cx="238" cy="162" r="2.5"/><circle cx="268" cy="162" r="2.5"/><circle cx="298" cy="162" r="2.5"/><circle cx="328" cy="162" r="2.5"/><circle cx="358" cy="162" r="2.5"/><circle cx="388" cy="162" r="2.5"/><circle cx="418" cy="162" r="2.5"/><circle cx="448" cy="162" r="2.5"/><circle cx="478" cy="162" r="2.5"/><circle cx="508" cy="162" r="2.5"/><circle cx="538" cy="162" r="2.5"/><circle cx="568" cy="162" r="2.5"/><circle cx="598" cy="162" r="2.5"/><circle cx="628" cy="162" r="2.5"/>
<circle cx="58" cy="212" r="2.5"/><circle cx="88" cy="212" r="2.5"/><circle cx="118" cy="212" r="2.5"/><circle cx="148" cy="212" r="2.5"/><circle cx="178" cy="212" r="2.5"/><circle cx="208" cy="212" r="2.5"/><circle cx="238" cy="212" r="2.5"/><circle cx="268" cy="212" r="2.5"/><circle cx="298" cy="212" r="2.5"/><circle cx="328" cy="212" r="2.5"/><circle cx="358" cy="212" r="2.5"/><circle cx="388" cy="212" r="2.5"/><circle cx="418" cy="212" r="2.5"/><circle cx="448" cy="212" r="2.5"/><circle cx="478" cy="212" r="2.5"/><circle cx="508" cy="212" r="2.5"/><circle cx="538" cy="212" r="2.5"/><circle cx="568" cy="212" r="2.5"/><circle cx="598" cy="212" r="2.5"/><circle cx="628" cy="212" r="2.5"/>
<circle cx="58" cy="262" r="2.5"/><circle cx="88" cy="262" r="2.5"/><circle cx="118" cy="262" r="2.5"/><circle cx="148" cy="262" r="2.5"/><circle cx="178" cy="262" r="2.5"/><circle cx="208" cy="262" r="2.5"/><circle cx="238" cy="262" r="2.5"/><circle cx="268" cy="262" r="2.5"/><circle cx="298" cy="262" r="2.5"/><circle cx="328" cy="262" r="2.5"/><circle cx="358" cy="262" r="2.5"/><circle cx="388" cy="262" r="2.5"/><circle cx="418" cy="262" r="2.5"/><circle cx="448" cy="262" r="2.5"/><circle cx="478" cy="262" r="2.5"/><circle cx="508" cy="262" r="2.5"/><circle cx="538" cy="262" r="2.5"/><circle cx="568" cy="262" r="2.5"/><circle cx="598" cy="262" r="2.5"/><circle cx="628" cy="262" r="2.5"/>
</g>

<!-- BCM22 odd-pin indicator (phys pin 15, col 8, above R1) -->
<circle cx="268" cy="44" r="5" fill="#3A2060" stroke="#9060D0" stroke-width="0.5"/>
<text x="268" y="35" text-anchor="middle" fill="#9060D0" font-family="monospace" font-size="8">22*</text>

<!-- Direct connection lines (R1 to R3, same column) -->
<g stroke="#555550" stroke-width="1">
<line x1="148" y1="68" x2="148" y2="156"/>
<line x1="178" y1="68" x2="178" y2="156"/>
<line x1="208" y1="68" x2="208" y2="156"/>
<line x1="268" y1="68" x2="268" y2="156"/>
<line x1="298" y1="68" x2="298" y2="156"/>
<line x1="358" y1="68" x2="358" y2="156"/>
<line x1="388" y1="68" x2="388" y2="156"/>
<line x1="418" y1="68" x2="418" y2="156"/>
<line x1="508" y1="68" x2="508" y2="156"/>
<line x1="568" y1="68" x2="568" y2="156"/>
</g>

<!-- Jumper wires (dashed red) -->
<g stroke="#E24B4A" stroke-width="1.5" stroke-dasharray="4 3" fill="none">
<!-- J1: CJ4-12 ST3 col7 R3 --> BCM22 odd col8 above R1 -->
<path d="M238 156 L238 112 L268 112 L268 49"/>
<!-- J2: CJ4-9 RI1 col10 R3 --> BCM1 col14 R1 -->
<path d="M328 156 L328 107 L448 107 L448 68"/>
<!-- J3: CJ4-4 RI5 col15 R3 --> BCM16 col19 R1 -->
<path d="M478 156 L478 117 L598 117 L598 68"/>
<!-- J4: CJ4-2 RI7 col17 R3 --> BCM21 col20 R1 -->
<path d="M538 156 L538 122 L628 122 L628 68"/>
</g>

<!-- R1: Pi even GPIO pins -->
<!-- 5V cols 1,2 -->
<circle cx="58" cy="62" r="6" fill="#7A1F1F" stroke="#F09595" stroke-width="0.5"/>
<circle cx="88" cy="62" r="6" fill="#7A1F1F" stroke="#F09595" stroke-width="0.5"/>
<!-- GND col 3 -->
<circle cx="118" cy="62" r="6" fill="#3C3C3A" stroke="#A0A096" stroke-width="0.5"/>
<!-- Strobe col 4 BCM14 -->
<circle cx="148" cy="62" r="6" fill="#1F3D7A" stroke="#95AFF0" stroke-width="0.5"/>
<!-- Strobe col 5 BCM15 -->
<circle cx="178" cy="62" r="6" fill="#1F3D7A" stroke="#95AFF0" stroke-width="0.5"/>
<!-- Strobe col 6 BCM18 -->
<circle cx="208" cy="62" r="6" fill="#1F3D7A" stroke="#95AFF0" stroke-width="0.5"/>
<!-- GND col 7 (ST3 routes to odd pin 15) -->
<circle cx="238" cy="62" r="6" fill="#3C3C3A" stroke="#A0A096" stroke-width="0.5"/>
<!-- Strobe col 8 BCM23 -->
<circle cx="268" cy="62" r="6" fill="#1F3D7A" stroke="#95AFF0" stroke-width="0.5"/>
<!-- Return col 9 BCM24 -->
<circle cx="298" cy="62" r="6" fill="#1A5F5F" stroke="#64C8C8" stroke-width="0.5"/>
<!-- GND col 10 (RI1 jumper dest col14) -->
<circle cx="328" cy="62" r="6" fill="#3C3C3A" stroke="#A0A096" stroke-width="0.5"/>
<!-- Return col 11 BCM25 -->
<circle cx="358" cy="62" r="6" fill="#1A5F5F" stroke="#64C8C8" stroke-width="0.5"/>
<!-- Return col 12 BCM8 -->
<circle cx="388" cy="62" r="6" fill="#1A5F5F" stroke="#64C8C8" stroke-width="0.5"/>
<!-- Return col 13 BCM7 -->
<circle cx="418" cy="62" r="6" fill="#1A5F5F" stroke="#64C8C8" stroke-width="0.5"/>
<!-- Return col 14 BCM1 (RI1 jumper dest) -->
<circle cx="448" cy="62" r="6" fill="#1A5F5F" stroke="#64C8C8" stroke-width="0.5"/>
<!-- GND col 15 (RI5 jumper dest col19) -->
<circle cx="478" cy="62" r="6" fill="#3C3C3A" stroke="#A0A096" stroke-width="0.5"/>
<!-- Return col 16 BCM12 -->
<circle cx="508" cy="62" r="6" fill="#1A5F5F" stroke="#64C8C8" stroke-width="0.5"/>
<!-- GND col 17 (RI7 jumper dest col20) -->
<circle cx="538" cy="62" r="6" fill="#3C3C3A" stroke="#A0A096" stroke-width="0.5"/>
<!-- Strobe col 18 BCM20 -->
<circle cx="568" cy="62" r="6" fill="#1F3D7A" stroke="#95AFF0" stroke-width="0.5"/>
<!-- Return col 19 BCM16 (RI5 jumper dest) -->
<circle cx="598" cy="62" r="6" fill="#1A5F5F" stroke="#64C8C8" stroke-width="0.5"/>
<!-- Return col 20 BCM21 (RI7 jumper dest) -->
<circle cx="628" cy="62" r="6" fill="#1A5F5F" stroke="#64C8C8" stroke-width="0.5"/>

<!-- R1 BCM labels below circles -->
<g fill="#C2C0B6" font-family="monospace" font-size="8" text-anchor="middle">
<text x="58" y="77">5V</text>
<text x="88" y="77">5V</text>
<text x="118" y="77">G</text>
<text x="148" y="77">14</text>
<text x="178" y="77">15</text>
<text x="208" y="77">18</text>
<text x="238" y="77">G</text>
<text x="268" y="77">23</text>
<text x="298" y="77">24</text>
<text x="328" y="77">G</text>
<text x="358" y="77">25</text>
<text x="388" y="77">8</text>
<text x="418" y="77">7</text>
<text x="448" y="77">1</text>
<text x="478" y="77">G</text>
<text x="508" y="77">12</text>
<text x="538" y="77">G</text>
<text x="568" y="77">20</text>
<text x="598" y="77">16</text>
<text x="628" y="77">21</text>
</g>
<!-- R1 signal labels -->
<g fill="#7A8898" font-family="monospace" font-size="7" text-anchor="middle">
<text x="148" y="86">S0</text>
<text x="178" y="86">S1</text>
<text x="208" y="86">S2</text>
<text x="268" y="86">S4</text>
<text x="298" y="86">R0</text>
<text x="358" y="86">R2</text>
<text x="388" y="86">R3</text>
<text x="418" y="86">R4</text>
<text x="448" y="86">R1</text>
<text x="508" y="86">R6</text>
<text x="568" y="86">S5</text>
<text x="598" y="86">R5</text>
<text x="628" y="86">R7</text>
</g>

<!-- R3: CJ4 connector pins (cols 4-18) -->
<!-- Strobe col 4 CJ4-15 S0 -->
<circle cx="148" cy="162" r="6" fill="#1F3D7A" stroke="#95AFF0" stroke-width="0.5"/>
<!-- Strobe col 5 CJ4-14 S1 -->
<circle cx="178" cy="162" r="6" fill="#1F3D7A" stroke="#95AFF0" stroke-width="0.5"/>
<!-- Strobe col 6 CJ4-13 S2 -->
<circle cx="208" cy="162" r="6" fill="#1F3D7A" stroke="#95AFF0" stroke-width="0.5"/>
<!-- Strobe col 7 CJ4-12 S3 (jumper J1) -->
<circle cx="238" cy="162" r="6" fill="#1F3D7A" stroke="#E24B4A" stroke-width="1"/>
<!-- Strobe col 8 CJ4-11 S4 -->
<circle cx="268" cy="162" r="6" fill="#1F3D7A" stroke="#95AFF0" stroke-width="0.5"/>
<!-- Return col 9 CJ4-10 R0 -->
<circle cx="298" cy="162" r="6" fill="#1A5F5F" stroke="#64C8C8" stroke-width="0.5"/>
<!-- Return col 10 CJ4-9 R1 (jumper J2) -->
<circle cx="328" cy="162" r="6" fill="#1A5F5F" stroke="#E24B4A" stroke-width="1"/>
<!-- Return col 11 CJ4-8 R2 -->
<circle cx="358" cy="162" r="6" fill="#1A5F5F" stroke="#64C8C8" stroke-width="0.5"/>
<!-- Return col 12 CJ4-7 R3 -->
<circle cx="388" cy="162" r="6" fill="#1A5F5F" stroke="#64C8C8" stroke-width="0.5"/>
<!-- Return col 13 CJ4-6 R4 -->
<circle cx="418" cy="162" r="6" fill="#1A5F5F" stroke="#64C8C8" stroke-width="0.5"/>
<!-- KEY col 14 CJ4-5 (no pin) -->
<rect x="442" y="156" width="12" height="12" rx="2" fill="#5A4010" stroke="#C8A050" stroke-width="0.5"/>
<!-- Return col 15 CJ4-4 R5 (jumper J3) -->
<circle cx="478" cy="162" r="6" fill="#1A5F5F" stroke="#E24B4A" stroke-width="1"/>
<!-- Return col 16 CJ4-3 R6 -->
<circle cx="508" cy="162" r="6" fill="#1A5F5F" stroke="#64C8C8" stroke-width="0.5"/>
<!-- Return col 17 CJ4-2 R7 (jumper J4) -->
<circle cx="538" cy="162" r="6" fill="#1A5F5F" stroke="#E24B4A" stroke-width="1"/>
<!-- Strobe col 18 CJ4-1 S5 -->
<circle cx="568" cy="162" r="6" fill="#1F3D7A" stroke="#95AFF0" stroke-width="0.5"/>

<!-- R3 CJ4 pin labels above connector -->
<g fill="#C2C0B6" font-family="monospace" font-size="8" text-anchor="middle">
<text x="148" y="151">15</text>
<text x="178" y="151">14</text>
<text x="208" y="151">13</text>
<text x="238" y="151">12</text>
<text x="268" y="151">11</text>
<text x="298" y="151">10</text>
<text x="328" y="151">9</text>
<text x="358" y="151">8</text>
<text x="388" y="151">7</text>
<text x="418" y="151">6</text>
<text x="448" y="151">KEY</text>
<text x="478" y="151">4</text>
<text x="508" y="151">3</text>
<text x="538" y="151">2</text>
<text x="568" y="151">1</text>
</g>
<!-- R3 signal labels below -->
<g fill="#7A8898" font-family="monospace" font-size="7" text-anchor="middle">
<text x="148" y="177">S0</text>
<text x="178" y="177">S1</text>
<text x="208" y="177">S2</text>
<text x="238" y="177">S3</text>
<text x="268" y="177">S4</text>
<text x="298" y="177">R0</text>
<text x="328" y="177">R1</text>
<text x="358" y="177">R2</text>
<text x="388" y="177">R3</text>
<text x="418" y="177">R4</text>
<text x="478" y="177">R5</text>
<text x="508" y="177">R6</text>
<text x="538" y="177">R7</text>
<text x="568" y="177">S5</text>
</g>

<!-- Jumper wire labels -->
<g fill="#E24B4A" font-family="monospace" font-size="8" text-anchor="middle">
<text x="253" y="105">J1</text>
<text x="388" y="105">J2</text>
<text x="538" y="114">J3</text>
<text x="583" y="119">J4</text>
</g>

<!-- Legend -->
<rect x="38" y="295" width="610" height="160" rx="4" fill="#1E1E1C" stroke="rgba(222,220,209,0.1)" stroke-width="0.5"/>
<text x="48" y="312" fill="#C2C0B6" font-family="monospace" font-size="10">Legend</text>

<!-- Legend items row 1 -->
<circle cx="58" cy="330" r="6" fill="#1F3D7A" stroke="#95AFF0" stroke-width="0.5"/>
<text x="70" y="334" fill="#C2C0B6" font-family="monospace" font-size="9">Strobe</text>
<circle cx="128" cy="330" r="6" fill="#1A5F5F" stroke="#64C8C8" stroke-width="0.5"/>
<text x="140" y="334" fill="#C2C0B6" font-family="monospace" font-size="9">Return</text>
<circle cx="198" cy="330" r="6" fill="#7A1F1F" stroke="#F09595" stroke-width="0.5"/>
<text x="210" y="334" fill="#C2C0B6" font-family="monospace" font-size="9">5V</text>
<circle cx="248" cy="330" r="6" fill="#3C3C3A" stroke="#A0A096" stroke-width="0.5"/>
<text x="260" y="334" fill="#C2C0B6" font-family="monospace" font-size="9">GND</text>
<circle cx="308" cy="330" r="6" fill="#3A2060" stroke="#9060D0" stroke-width="0.5"/>
<text x="320" y="334" fill="#C2C0B6" font-family="monospace" font-size="9">BCM22* (odd-side Pi pin)</text>
<!-- Legend items row 2 -->
<rect x="52" y="349" width="12" height="12" rx="2" fill="#5A4010" stroke="#C8A050" stroke-width="0.5"/>
<text x="70" y="360" fill="#C2C0B6" font-family="monospace" font-size="9">KEY (no connector pin)</text>
<circle cx="248" cy="355" r="6" fill="#1F3D7A" stroke="#E24B4A" stroke-width="1"/>
<text x="260" y="360" fill="#C2C0B6" font-family="monospace" font-size="9">Pin needs jumper</text>
<line x1="440" y1="355" x2="490" y2="355" stroke="#E24B4A" stroke-width="1.5" stroke-dasharray="4 3"/>
<text x="496" y="360" fill="#C2C0B6" font-family="monospace" font-size="9">Jumper wire</text>

<!-- Board info -->
<text x="48" y="386" fill="#8A8880" font-family="monospace" font-size="9">Perfboard: 20-col x 5-row, 0.100" pitch</text>
<text x="48" y="400" fill="#8A8880" font-family="monospace" font-size="9">R1: Raspberry Pi 2x20 GPIO socket (even-numbered pins face board)</text>
<text x="48" y="414" fill="#8A8880" font-family="monospace" font-size="9">R3: CJ4 15-pin 0.100" Molex KK, CJ4-15 at col 4, CJ4-1 at col 18</text>
<text x="48" y="428" fill="#8A8880" font-family="monospace" font-size="9">* BCM22 (phys pin 15) is the odd-side pin adjacent to col 8; only odd pin used</text>
<text x="48" y="442" fill="#8A8880" font-family="monospace" font-size="9">J1: ST3 col7->BCM22  J2: RI1 col10->col14  J3: RI5 col15->col19  J4: RI7 col17->col20</text>
</svg>
